<?xml version="1.0" encoding="UTF-8" standalone="no"?>
<svg width="185px" height="24px" viewBox="0 0 185 24" version="1.1" xmlns="http://www.w3.org/2000/svg" xmlns:xlink="http://www.w3.org/1999/xlink">
    <!-- Generator: Sketch 39.1 (31720) - http://www.bohemiancoding.com/sketch -->
    <title>large</title>
    <desc>Created with Sketch.</desc>
    <defs></defs>
    <g id="Page-1" stroke="none" stroke-width="1" fill="none" fill-rule="evenodd">
        <g id="Artboard" transform="translate(-158.000000, -28.000000)" fill="#FFFFFF">
            <path d="M171.28693,28.1309686 C171.811849,28.1309686 172.150853,28.2783068 172.303955,28.5729877 C172.457056,28.8676686 172.533605,29.3096833 172.533605,29.899045 C172.533605,30.4884068 172.457056,30.9304214 172.303955,31.2251023 C172.150853,31.5197832 171.811849,31.6671214 171.28693,31.6671214 L167.842171,31.6671214 C165.91747,31.6671214 164.523176,31.9126851 163.659248,32.4038199 C162.79532,32.8949547 162.363362,33.5006785 162.363362,34.2210095 L162.363362,38.4120055 L183.622451,38.4120055 C184.147369,38.4120055 184.491842,38.5593437 184.655879,38.8540246 C184.819916,39.1487054 184.901933,39.5907201 184.901933,40.1800819 C184.901933,40.7694436 184.819916,41.2114583 184.655879,41.5061392 C184.491842,41.80082 184.147369,41.9481583 183.622451,41.9481583 L162.363362,41.9481583 L162.363362,50.4611187 C162.363362,51.0941369 162.177456,51.5088667 161.805639,51.7053206 C161.433822,51.9017745 160.88704,52 160.165278,52 C159.465386,52 158.92954,51.9017745 158.557723,51.7053206 C158.185906,51.5088667 158,51.0941369 158,50.4611187 L158,34.2210095 C158,30.160962 161.236948,28.1309686 167.710942,28.1309686 L171.28693,28.1309686 Z M186.542295,39.0668486 C186.542295,35.2687395 189.63708,33.3697135 195.826742,33.3697135 L202.97872,33.3697135 C209.168382,33.3697135 212.263167,35.2687395 212.263167,39.0668486 L212.263167,46.1718963 C212.263167,49.9700053 209.168382,51.8690314 202.97872,51.8690314 L195.826742,51.8690314 C189.63708,51.8690314 186.542295,49.9700053 186.542295,46.1718963 L186.542295,39.0668486 Z M208.096648,39.0668486 C208.096648,38.390174 207.681094,37.8226489 206.849973,37.3642565 C206.018853,36.905864 204.684705,36.6766712 202.847491,36.6766712 L195.957971,36.6766712 C194.120757,36.6766712 192.786609,36.905864 191.955489,37.3642565 C191.124368,37.8226489 190.708814,38.390174 190.708814,39.0668486 L190.708814,46.1718963 C190.708814,46.8267427 191.124368,47.3888108 191.955489,47.8581173 C192.786609,48.3274239 194.120757,48.5620737 195.957971,48.5620737 L202.847491,48.5620737 C204.684705,48.5620737 206.018853,48.3274239 206.849973,47.8581173 C207.681094,47.3888108 208.096648,46.8267427 208.096648,46.1718963 L208.096648,39.0668486 Z M216.987409,52 C216.287518,52 215.768075,51.9017745 215.429065,51.7053206 C215.090056,51.5088667 214.920553,51.0941369 214.920553,50.4611187 L214.920553,39.0668486 C214.920553,35.2687395 218.015338,33.3697135 224.205001,33.3697135 L231.356978,33.3697135 C237.546641,33.3697135 240.641426,35.2687395 240.641426,39.0668486 L240.641426,50.4611187 C240.641426,51.0941369 240.466456,51.5088667 240.11651,51.7053206 C239.766564,51.9017745 239.241654,52 238.541763,52 C237.841872,52 237.322429,51.9017745 236.983419,51.7053206 C236.644409,51.5088667 236.474907,51.0941369 236.474907,50.4611187 L236.474907,39.0668486 C236.474907,38.390174 236.059353,37.8226489 235.228232,37.3642565 C234.397111,36.905864 233.062964,36.6766712 231.225749,36.6766712 L224.33623,36.6766712 C222.499015,36.6766712 221.164868,36.905864 220.333747,37.3642565 C219.502626,37.8226489 219.087072,38.390174 219.087072,39.0668486 L219.087072,50.4611187 C219.087072,51.0941369 218.912102,51.5088667 218.562156,51.7053206 C218.212211,51.9017745 217.6873,52 216.987409,52 L216.987409,52 Z M247.465331,44.5020464 L247.465331,46.1718963 C247.465331,46.8267427 247.880885,47.3888108 248.712006,47.8581173 C249.543126,48.3274239 250.877274,48.5620737 252.714488,48.5620737 L256.48732,48.5620737 C256.990367,48.5620737 257.312968,48.698498 257.455134,48.9713506 C257.597299,49.2442033 257.668381,49.6534761 257.668381,50.1991814 C257.668381,50.7448868 257.597299,51.1596166 257.455134,51.4433834 C257.312968,51.7271501 256.990367,51.8690314 256.48732,51.8690314 L252.583259,51.8690314 C246.393597,51.8690314 243.298812,49.9700053 243.298812,46.1718963 L243.298812,39.0668486 C243.298812,35.2687395 246.393597,33.3697135 252.583259,33.3697135 L260.161731,33.3697135 C263.442471,33.3697135 265.810036,33.839013 267.264497,34.7776262 C268.718959,35.7162393 269.446178,37.1459658 269.446178,39.0668486 L269.446178,42.8321965 C269.446178,43.4652146 269.325886,43.9017723 269.085299,44.1418827 C268.844711,44.381993 268.308865,44.5020464 267.477744,44.5020464 L247.465331,44.5020464 Z M247.465331,41.260573 L265.27966,41.260573 L265.27966,39.0668486 C265.27966,38.3028611 264.869573,37.7135082 264.049388,37.2987722 C263.229203,36.8840361 261.889588,36.6766712 260.030502,36.6766712 L252.714488,36.6766712 C250.877274,36.6766712 249.543126,36.905864 248.712006,37.3642565 C247.880885,37.8226489 247.465331,38.390174 247.465331,39.0668486 L247.465331,41.260573 Z M273.317432,33.3697135 L273.317432,29.5388813 C273.317432,28.9058631 273.486935,28.4911333 273.825944,28.2946794 C274.164954,28.0982255 274.684397,28 275.384288,28 C276.084179,28 276.60909,28.0982255 276.959035,28.2946794 C277.308981,28.4911333 277.483951,28.9058631 277.483951,29.5388813 L277.483951,33.3697135 L284.406278,33.3697135 C284.909324,33.3697135 285.231926,33.5115948 285.374091,33.7953615 C285.516257,34.0791283 285.587338,34.4938581 285.587338,35.0395634 C285.587338,35.5852688 285.516257,35.9945416 285.374091,36.2673943 C285.231926,36.5402469 284.909324,36.6766712 284.406278,36.6766712 L277.483951,36.6766712 L277.483951,50.4611187 C277.483951,51.0941369 277.308981,51.5088667 276.959035,51.7053206 C276.60909,51.9017745 276.084179,52 275.384288,52 C274.684397,52 274.164954,51.9017745 273.825944,51.7053206 C273.486935,51.5088667 273.317432,51.0941369 273.317432,50.4611187 L273.317432,36.6766712 L271.44742,36.6766712 C270.944373,36.6766712 270.621772,36.5402469 270.479606,36.2673943 C270.337441,35.9945416 270.266359,35.5852688 270.266359,35.0395634 C270.266359,34.4938581 270.337441,34.0791283 270.479606,33.7953615 C270.621772,33.5115948 270.944373,33.3697135 271.44742,33.3697135 L273.317432,33.3697135 Z M290.081929,51.8690314 C283.892267,51.8690314 280.797482,49.9700053 280.797482,46.1718963 L280.797482,44.4365621 C280.797482,40.638453 283.892267,38.739427 290.081929,38.739427 L304.123426,38.739427 L304.123426,38.7066849 C304.123426,38.0736667 303.71334,37.5770823 302.893155,37.2169168 C302.07297,36.8567513 300.733354,36.6766712 298.874268,36.6766712 L295.790388,36.6766712 C295.287342,36.6766712 294.959273,36.5402469 294.806171,36.2673943 C294.65307,35.9945416 294.576521,35.5852688 294.576521,35.0395634 C294.576521,34.4720299 294.65307,34.0518431 294.806171,33.7789905 C294.959273,33.5061378 295.287342,33.3697135 295.790388,33.3697135 L299.005497,33.3697135 C305.19516,33.3697135 308.289945,35.2687395 308.289945,39.0668486 L308.289945,46.1718963 C308.289945,49.9700053 305.19516,51.8690314 299.005497,51.8690314 L290.081929,51.8690314 Z M298.874268,48.5620737 C300.711483,48.5620737 302.04563,48.3274239 302.876751,47.8581173 C303.707872,47.3888108 304.123426,46.8267427 304.123426,46.1718963 L304.123426,41.9154161 L290.213158,41.9154161 C288.375944,41.9154161 287.041796,42.1446089 286.210676,42.6030014 C285.379555,43.0613938 284.964001,43.6289189 284.964001,44.3055935 L284.964001,46.1718963 C284.964001,46.8267427 285.379555,47.3888108 286.210676,47.8581173 C287.041796,48.3274239 288.375944,48.5620737 290.213158,48.5620737 L298.874268,48.5620737 Z M322.954779,40.4092769 L331.451853,33.6971351 C331.692441,33.5225094 331.954896,33.402456 332.239227,33.3369714 C332.523558,33.2714867 333.015661,33.2387449 333.715552,33.2387449 C334.393572,33.2387449 334.945822,33.2987716 335.372318,33.4188267 C335.798814,33.5388819 336.012059,33.8390153 336.012059,34.319236 C336.012059,34.5375181 335.946445,34.7230552 335.815215,34.8758527 C335.683986,35.0286502 335.432466,35.2578429 335.060649,35.5634379 L325.90743,42.6684857 L335.159071,49.675307 C335.530888,49.9809019 335.782408,50.2100947 335.913637,50.3628922 C336.044867,50.5156897 336.110481,50.7121407 336.110481,50.952251 C336.110481,51.4106435 335.919107,51.699863 335.536354,51.8199181 C335.153601,51.9399733 334.601351,52 333.879589,52 C333.245312,52 332.77508,51.9672582 332.468877,51.9017735 C332.162675,51.8362889 331.889284,51.7162355 331.648697,51.5416098 L322.790743,44.6984993 L314.096826,51.5416098 C313.834366,51.7380637 313.55004,51.8635741 313.243838,51.9181446 C312.937635,51.9727151 312.50021,52 311.931548,52 C311.209785,52 310.635664,51.9454303 310.209168,51.8362892 C309.782672,51.7271482 309.569427,51.4215578 309.569427,50.9195089 C309.569427,50.7012267 309.629573,50.5156897 309.749867,50.3628922 C309.870161,50.2100947 310.116213,49.9809019 310.48803,49.675307 L319.838092,42.4392906 L310.783295,35.5634379 C310.411478,35.2578429 310.165426,35.0177362 310.045132,34.8431105 C309.924838,34.6684848 309.864692,34.4829478 309.864692,34.2864939 C309.864692,33.8499296 310.056066,33.5661671 310.438819,33.4351978 C310.821572,33.3042285 311.395693,33.2387449 312.161199,33.2387449 C312.751732,33.2387449 313.194625,33.2714867 313.489892,33.3369714 C313.785158,33.402456 314.053081,33.5225094 314.293669,33.6971351 L322.954779,40.4092769 Z M342.507891,50.4611187 C342.507891,51.0941369 342.332921,51.5088667 341.982976,51.7053206 C341.63303,51.9017745 341.10812,52 340.408228,52 C339.708337,52 339.188895,51.9017745 338.849885,51.7053206 C338.510875,51.5088667 338.341373,51.0941369 338.341373,50.4611187 L338.341373,35.0068213 C338.341373,34.3738031 338.510875,33.9590733 338.849885,33.7626194 C339.188895,33.5661655 339.708337,33.46794 340.408228,33.46794 C341.10812,33.46794 341.63303,33.5661655 341.982976,33.7626194 C342.332921,33.9590733 342.507891,34.3738031 342.507891,35.0068213 L342.507891,50.4611187 Z M337.816457,30.0300136 C337.816457,29.3315108 338.018766,28.8185555 338.423391,28.4911323 C338.828015,28.1637091 339.489621,28 340.408228,28 C341.326836,28 341.988442,28.1637091 342.393066,28.4911323 C342.797691,28.8185555 343,29.3315108 343,30.0300136 C343,30.7285165 342.797691,31.2414718 342.393066,31.568895 C341.988442,31.8963181 341.326836,32.0600273 340.408228,32.0600273 C339.489621,32.0600273 338.828015,31.8963181 338.423391,31.568895 C338.018766,31.2414718 337.816457,30.7285165 337.816457,30.0300136 L337.816457,30.0300136 Z" id="large"></path>
        </g>
    </g>
</svg>